HIERARCHY
ROOT Hips
{
	OFFSET 0.000000 0.000000 0.000000
	CHANNELS 6 Xposition Yposition Zposition Yrotation Xrotation Zrotation
	JOINT Chest
	{
		OFFSET 0.000000 -0.009281 11.569106
		CHANNELS 3 Yrotation Xrotation Zrotation
		JOINT Chest2
		{
			OFFSET -0.000000 0.016865 9.269641
			CHANNELS 3 Yrotation Xrotation Zrotation
			JOINT Chest3
			{
				OFFSET -0.000000 0.000001 8.374491
				CHANNELS 3 Yrotation Xrotation Zrotation
				JOINT Chest4
				{
					OFFSET -0.000000 0.000001 8.374493
					CHANNELS 3 Yrotation Xrotation Zrotation
					JOINT Neck
					{
						OFFSET -0.000000 0.000002 12.152554
						CHANNELS 3 Yrotation Xrotation Zrotation
						JOINT Head
						{
							OFFSET -0.000000 0.040101 7.802319
							CHANNELS 3 Yrotation Xrotation Zrotation
							End Site
							{
								OFFSET -0.000000 0.020947 14.853096
							}
						}
					}
					JOINT RightCollar
					{
						OFFSET 2.894404 0.000001 6.791374
						CHANNELS 3 Yrotation Xrotation Zrotation
						JOINT RightShoulder
						{
							OFFSET 13.574684 0.000001 0.000000
							CHANNELS 3 Yrotation Xrotation Zrotation
							JOINT RightElbow
							{
								OFFSET 23.923903 0.000002 0.000000
								CHANNELS 3 Yrotation Xrotation Zrotation
								JOINT RightWrist
								{
									OFFSET 19.846718 0.012767 0.000000
									CHANNELS 3 Yrotation Xrotation Zrotation
									End Site
									{
										OFFSET 14.973145 0.000001 0.000000
									}
								}
							}
						}
					}
					JOINT LeftCollar
					{
						OFFSET -2.894404 0.000001 6.791374
						CHANNELS 3 Yrotation Xrotation Zrotation
						JOINT LeftShoulder
						{
							OFFSET -13.574684 -0.000001 0.000000
							CHANNELS 3 Yrotation Xrotation Zrotation
							JOINT LeftElbow
							{
								OFFSET -23.923903 -0.000002 0.000000
								CHANNELS 3 Yrotation Xrotation Zrotation
								JOINT LeftWrist
								{
									OFFSET -19.846718 0.012763 0.000000
									CHANNELS 3 Yrotation Xrotation Zrotation
									End Site
									{
										OFFSET -14.973145 -0.000001 0.000000
									}
								}
							}
						}
					}
				}
			}
		}
	}
	JOINT RightHip
	{
		OFFSET 9.469263 0.004643 0.045487
		CHANNELS 3 Yrotation Xrotation Zrotation
		JOINT RightKnee
		{
			OFFSET 0.000000 0.002661 -40.478676
			CHANNELS 3 Yrotation Xrotation Zrotation
			JOINT RightAnkle
			{
				OFFSET 0.000000 0.049106 -35.224068
				CHANNELS 3 Yrotation Xrotation Zrotation
				JOINT RightToe
				{
					OFFSET -0.000001 12.539529 -6.151390
					CHANNELS 3 Yrotation Xrotation Zrotation
					End Site
					{
						OFFSET -0.000001 5.044994 -1.291870
					}
				}
			}
		}
	}
	JOINT LeftHip
	{
		OFFSET -9.469263 0.004641 0.045487
		CHANNELS 3 Yrotation Xrotation Zrotation
		JOINT LeftKnee
		{
			OFFSET 0.000000 0.002661 -40.478676
			CHANNELS 3 Yrotation Xrotation Zrotation
			JOINT LeftAnkle
			{
				OFFSET 0.000000 0.049106 -35.224068
				CHANNELS 3 Yrotation Xrotation Zrotation
				JOINT LeftToe
				{
					OFFSET -0.000001 12.539529 -6.151390
					CHANNELS 3 Yrotation Xrotation Zrotation
					End Site
					{
						OFFSET -0.000001 5.044994 -1.291870
					}
				}
			}
		}
	}
}
MOTION
Frames: 12
Frame Time: 0.016667
9.426436 7.631298 83.216751 -4.119558 -1.572291 -109.084432 -0.471087 -3.290669 1.058738 -0.205354 -1.463828 0.455590 -0.205354 -1.463828 0.455591 -0.152916 -1.098024 0.341183 0.459046 -13.497011 -2.362111 -0.083765 11.099355 -4.284263 0.219472 24.676198 -6.072258 22.938526 40.154993 27.705600 -18.275151 -1.887100 41.794935 21.685215 -15.563663 -14.721366 -0.794194 23.180366 2.920498 -22.753184 38.118367 -25.966762 3.750939 11.159953 -45.555521 -24.810898 -31.058147 28.426981 -0.606597 -3.925914 -1.927707 1.557508 -4.009507 -6.637967 -0.596373 2.530556 1.551066 0.009554 0.008278 -0.010308 -0.998759 -5.321305 -0.091588 0.447679 -1.720178 2.228284 0.786462 2.735493 1.035139 0.028761 -0.077142 0.014426 
9.432735 7.638421 83.214966 -4.141130 -1.586549 -109.075095 -0.451302 -3.218667 1.090182 -0.196094 -1.431696 0.469090 -0.196094 -1.431696 0.469092 -0.145964 -1.073924 0.351338 0.458350 -13.798443 -2.352632 -0.071483 10.539956 -4.259651 0.509741 24.193703 -5.948001 24.514562 41.569740 28.260802 -19.835206 -1.686607 43.581074 19.223557 -16.585938 -13.715904 -1.139779 22.434245 2.725629 -24.507953 39.492410 -26.483247 4.509369 11.140799 -47.835486 -22.341694 -32.635696 27.212693 -0.607549 -3.936849 -1.949722 1.557294 -4.046577 -6.596413 -0.599738 2.548390 1.526620 0.015582 0.007412 -0.010343 -0.989873 -5.344110 -0.042304 0.426107 -1.733629 2.241962 0.798404 2.762389 0.987518 0.029224 -0.076663 0.013536 
9.437575 7.652111 83.211258 -4.145105 -1.597496 -109.084821 -0.418093 -3.135448 1.103697 -0.179881 -1.394145 0.475700 -0.179881 -1.394145 0.475701 -0.133819 -1.045750 0.356349 0.441631 -14.097871 -2.324731 -0.082389 9.984189 -4.206909 0.652978 23.456750 -6.010066 26.437253 43.046133 29.217709 -21.017018 -1.323411 45.156143 16.546876 -17.541845 -12.454141 -1.832534 21.922476 2.134363 -25.545908 40.749585 -26.454723 4.899553 11.191217 -49.998716 -19.322720 -34.561444 25.565125 -0.611257 -3.927571 -1.970413 1.558918 -4.079663 -6.555187 -0.606377 2.564300 1.519752 0.023835 0.002303 -0.010494 -0.990624 -5.348783 0.017145 0.413601 -1.747921 2.249262 0.819240 2.793127 0.968510 0.023807 -0.079960 0.011190 
9.444036 7.670451 83.208763 -4.144537 -1.613403 -109.127913 -0.377864 -3.064576 1.115607 -0.160506 -1.361824 0.481040 -0.160506 -1.361825 0.481039 -0.119301 -1.021495 0.360405 0.418107 -14.398973 -2.284917 -0.101640 9.425354 -4.134566 0.850611 23.208582 -5.894647 28.050648 44.033714 29.762536 -21.795926 -0.660392 46.599867 13.672883 -18.255233 -11.021018 -2.715630 21.339874 1.085556 -26.050261 42.234943 -25.803478 4.979977 11.327568 -52.198973 -15.887986 -36.665822 23.509661 -0.612044 -3.907983 -1.959836 1.555724 -4.118625 -6.524888 -0.607456 2.575987 1.514230 0.030575 -0.000063 -0.010993 -0.992772 -5.362475 0.106546 0.408029 -1.743500 2.242616 0.838625 2.813666 0.952314 0.019325 -0.080794 0.010988 
9.454844 7.687894 83.210052 -4.155597 -1.626030 -109.204227 -0.361869 -3.003222 1.155158 -0.154081 -1.334276 0.498386 -0.154081 -1.334276 0.498387 -0.114468 -1.000833 0.373437 0.422725 -14.724397 -2.254442 -0.071207 8.822023 -4.068662 1.307261 23.393085 -5.502842 29.108381 44.649616 29.653693 -22.346212 0.192736 48.057225 10.602991 -18.637121 -9.434196 -3.289693 20.472006 0.328855 -27.239816 43.893155 -25.537615 5.102273 11.380794 -54.447775 -12.121148 -38.435059 21.073919 -0.620059 -3.902021 -1.927958 1.544267 -4.147559 -6.492783 -0.599720 2.579180 1.530948 0.033058 0.000026 -0.010321 -1.004789 -5.397488 0.183377 0.401256 -1.727361 2.258619 0.855615 2.819745 0.951776 0.018136 -0.069729 0.012564 
9.469262 7.704275 83.213562 -4.178951 -1.629375 -109.292548 -0.382803 -2.941827 1.228262 -0.165315 -1.307294 0.531965 -0.165316 -1.307294 0.531968 -0.122844 -0.980614 0.398606 0.478690 -15.080885 -2.249652 0.046132 8.161985 -4.031297 1.941454 23.389247 -4.914782 29.918083 45.370836 29.171776 -22.930193 1.082550 49.601090 7.316795 -18.763587 -7.741045 -3.557052 19.585830 0.047532 -29.296744 45.319241 -25.977132 5.476396 11.301039 -56.602894 -8.315267 -39.652650 18.560880 -0.637176 -3.911649 -1.888620 1.525230 -4.163664 -6.470179 -0.588421 2.576943 1.557890 0.034566 0.000214 -0.010088 -1.027707 -5.438403 0.209331 0.391050 -1.721125 2.308325 0.869484 2.820624 0.964928 0.019270 -0.049797 0.014034 
9.479282 7.715788 83.215187 -4.211460 -1.628956 -109.371239 -0.413577 -2.862257 1.300267 -0.181092 -1.272962 0.565898 -0.181092 -1.272962 0.565895 -0.134634 -0.954891 0.424028 0.557578 -15.473370 -2.250206 0.204690 7.435608 -3.995612 2.522238 22.966064 -4.385699 30.878995 46.366835 28.705397 -23.731952 1.722493 51.283126 4.122657 -18.819797 -6.015382 -3.837675 18.828269 -0.080911 -31.356859 46.483283 -26.564515 5.854270 11.039241 -58.527324 -4.409402 -40.597668 16.008676 -0.660897 -3.936597 -1.867496 1.517920 -4.163366 -6.452729 -0.592291 2.575702 1.588800 0.038723 -0.006559 -0.009915 -1.048311 -5.474039 0.172367 0.369958 -1.735581 2.373745 0.887325 2.830627 1.016296 0.019320 -0.034209 0.014814 
9.483812 7.724285 83.212708 -4.244547 -1.631389 -109.422137 -0.458115 -2.771771 1.387655 -0.200244 -1.233334 0.605889 -0.200244 -1.233334 0.605887 -0.148954 -0.925199 0.453995 0.652729 -15.882321 -2.274325 0.384580 6.678576 -3.998805 3.036891 22.366771 -4.055403 31.867327 47.588640 28.309823 -24.589798 1.973913 52.953613 1.102517 -19.038305 -4.137554 -4.348863 18.508983 -0.567054 -32.489991 47.264127 -26.445852 6.107908 10.765249 -60.106477 -0.068179 -41.520894 12.937851 -0.679995 -3.960003 -1.868043 1.516874 -4.172024 -6.446204 -0.604418 2.587201 1.629627 0.044388 -0.017732 -0.011163 -1.060356 -5.500727 0.117895 0.348416 -1.761087 2.420422 0.908158 2.851967 1.074139 0.015187 -0.031096 0.013882 
9.485572 7.731771 83.208534 -4.273413 -1.646619 -109.452149 -0.463396 -2.720646 1.431294 -0.199572 -1.209968 0.625792 -0.199572 -1.209968 0.625791 -0.148435 -0.907681 0.468930 0.695147 -16.272659 -2.275361 0.473617 5.955021 -3.979503 3.334690 22.042275 -3.927366 32.984520 48.428828 27.995702 -25.318550 2.243314 54.491929 -1.802131 -19.380889 -2.103431 -5.228828 18.265570 -1.664755 -32.553436 48.160101 -25.425541 6.305239 10.682138 -61.338002 4.873527 -42.204347 9.035070 -0.681646 -3.982888 -1.877918 1.514264 -4.184726 -6.435880 -0.615257 2.602032 1.658091 0.047383 -0.027326 -0.012182 -1.057923 -5.526505 0.084449 0.330978 -1.782875 2.447654 0.932324 2.876347 1.102775 0.006965 -0.036489 0.012492 
9.489464 7.741199 83.206757 -4.313671 -1.675459 -109.478356 -0.448785 -2.692462 1.452475 -0.189479 -1.196689 0.635164 -0.189479 -1.196689 0.635166 -0.140861 -0.897715 0.475983 0.705718 -16.659134 -2.262801 0.507880 5.237974 -3.947026 3.518020 22.036834 -3.936811 34.172311 48.715713 27.619741 -25.727791 2.855977 55.893337 -4.649297 -19.397078 0.014405 -6.060339 17.658597 -2.825960 -32.749934 49.239735 -24.449980 6.346135 10.837502 -62.435381 10.484913 -42.130717 4.528203 -0.675348 -4.019180 -1.882532 1.511807 -4.202458 -6.411709 -0.620071 2.612481 1.654237 0.045598 -0.028835 -0.013098 -1.053560 -5.570847 0.087112 0.325256 -1.798938 2.461455 0.953635 2.893940 1.114486 -0.000942 -0.038262 0.011852 
9.495087 7.750258 83.208298 -4.382503 -1.710430 -109.511811 -0.445222 -2.663459 1.463849 -0.186326 -1.184185 0.640140 -0.186326 -1.184185 0.640136 -0.138499 -0.888335 0.479731 0.722738 -17.065286 -2.243321 0.556691 4.484660 -3.899680 3.701318 21.838791 -3.954742 35.604646 48.928487 27.404321 -25.931158 3.671856 57.150355 -7.654848 -18.653674 2.151019 -6.358067 16.692511 -3.160399 -34.296876 50.201870 -24.553186 6.209423 10.963251 -63.511279 16.597645 -40.882032 -0.140095 -0.678714 -4.079593 -1.886154 1.513566 -4.230918 -6.367131 -0.621558 2.623823 1.658124 0.041556 -0.025217 -0.012783 -1.053546 -5.643106 0.119408 0.322753 -1.819285 2.470056 0.968571 2.904493 1.103767 -0.005374 -0.030914 0.012047 
9.497122 7.759220 83.209496 -4.467998 -1.738461 -109.548673 -0.474049 -2.647601 1.475402 -0.199926 -1.178093 0.645625 -0.199926 -1.178093 0.645626 -0.148695 -0.883783 0.483816 0.776754 -17.483041 -2.228436 0.672071 3.710656 -3.848621 4.087533 21.601933 -3.803247 36.894032 49.315250 27.009355 -26.240870 4.256319 58.496178 -10.832889 -17.349671 4.128836 -6.318817 15.499243 -2.799748 -36.899400 51.128044 -25.711711 6.110972 10.749745 -64.504969 22.751541 -38.881863 -4.797482 -0.695143 -4.144812 -1.892506 1.522578 -4.271415 -6.317140 -0.630527 2.641986 1.652713 0.038771 -0.023966 -0.013316 -1.067337 -5.721889 0.158226 0.323960 -1.848951 2.466536 0.979165 2.916618 1.109733 -0.007014 -0.023388 0.012877 
